<svg class="marks" width="765" height="571" viewBox="0 0 765 571" version="1.1" xmlns="http://www.w3.org/2000/svg" xmlns:xlink="http://www.w3.org/1999/xlink"><rect width="765" height="571" fill="white"></rect><g fill="none" stroke-miterlimit="10" transform="translate(59,15)"><g class="mark-group role-frame root" role="graphics-object" aria-roledescription="group mark container"><g transform="translate(0,0)"><path class="background" aria-hidden="true" d="M0.5,0.5h700v500h-700Z" stroke="#ddd"></path><g><g class="mark-group role-axis" role="graphics-symbol" aria-roledescription="axis" aria-label="X-axis for a linear scale with values from 0.0 to 1.0"><g transform="translate(0.5,500.5)"><path class="background" aria-hidden="true" d="M0,0h0v0h0Z" pointer-events="none"></path><g><g class="mark-rule role-axis-grid" pointer-events="none"><line transform="translate(0,-500)" x2="0" y2="500" stroke="#ddd" stroke-width="1" opacity="1"></line><line transform="translate(35,-500)" x2="0" y2="500" stroke="#ddd" stroke-width="1" opacity="1"></line><line transform="translate(70,-500)" x2="0" y2="500" stroke="#ddd" stroke-width="1" opacity="1"></line><line transform="translate(105,-500)" x2="0" y2="500" stroke="#ddd" stroke-width="1" opacity="1"></line><line transform="translate(140,-500)" x2="0" y2="500" stroke="#ddd" stroke-width="1" opacity="1"></line><line transform="translate(175,-500)" x2="0" y2="500" stroke="#ddd" stroke-width="1" opacity="1"></line><line transform="translate(210,-500)" x2="0" y2="500" stroke="#ddd" stroke-width="1" opacity="1"></line><line transform="translate(245,-500)" x2="0" y2="500" stroke="#ddd" stroke-width="1" opacity="1"></line><line transform="translate(280,-500)" x2="0" y2="500" stroke="#ddd" stroke-width="1" opacity="1"></line><line transform="translate(315,-500)" x2="0" y2="500" stroke="#ddd" stroke-width="1" opacity="1"></line><line transform="translate(350,-500)" x2="0" y2="500" stroke="#ddd" stroke-width="1" opacity="1"></line><line transform="translate(385,-500)" x2="0" y2="500" stroke="#ddd" stroke-width="1" opacity="1"></line><line transform="translate(420,-500)" x2="0" y2="500" stroke="#ddd" stroke-width="1" opacity="1"></line><line transform="translate(455,-500)" x2="0" y2="500" stroke="#ddd" stroke-width="1" opacity="1"></line><line transform="translate(490,-500)" x2="0" y2="500" stroke="#ddd" stroke-width="1" opacity="1"></line><line transform="translate(525,-500)" x2="0" y2="500" stroke="#ddd" stroke-width="1" opacity="1"></line><line transform="translate(560,-500)" x2="0" y2="500" stroke="#ddd" stroke-width="1" opacity="1"></line><line transform="translate(595,-500)" x2="0" y2="500" stroke="#ddd" stroke-width="1" opacity="1"></line><line transform="translate(630,-500)" x2="0" y2="500" stroke="#ddd" stroke-width="1" opacity="1"></line><line transform="translate(665,-500)" x2="0" y2="500" stroke="#ddd" stroke-width="1" opacity="1"></line><line transform="translate(700,-500)" x2="0" y2="500" stroke="#ddd" stroke-width="1" opacity="1"></line></g></g><path class="foreground" aria-hidden="true" d="" pointer-events="none" display="none"></path></g></g><g class="mark-group role-axis" role="graphics-symbol" aria-roledescription="axis" aria-label="Y-axis for a linear scale with values from 0 to 11"><g transform="translate(0.5,0.5)"><path class="background" aria-hidden="true" d="M0,0h0v0h0Z" pointer-events="none"></path><g><g class="mark-rule role-axis-grid" pointer-events="none"><line transform="translate(0,500)" x2="700" y2="0" stroke="#ddd" stroke-width="1" opacity="1"></line><line transform="translate(0,455)" x2="700" y2="0" stroke="#ddd" stroke-width="1" opacity="1"></line><line transform="translate(0,409)" x2="700" y2="0" stroke="#ddd" stroke-width="1" opacity="1"></line><line transform="translate(0,364)" x2="700" y2="0" stroke="#ddd" stroke-width="1" opacity="1"></line><line transform="translate(0,318)" x2="700" y2="0" stroke="#ddd" stroke-width="1" opacity="1"></line><line transform="translate(0,273)" x2="700" y2="0" stroke="#ddd" stroke-width="1" opacity="1"></line><line transform="translate(0,227)" x2="700" y2="0" stroke="#ddd" stroke-width="1" opacity="1"></line><line transform="translate(0,182)" x2="700" y2="0" stroke="#ddd" stroke-width="1" opacity="1"></line><line transform="translate(0,136)" x2="700" y2="0" stroke="#ddd" stroke-width="1" opacity="1"></line><line transform="translate(0,91)" x2="700" y2="0" stroke="#ddd" stroke-width="1" opacity="1"></line><line transform="translate(0,45)" x2="700" y2="0" stroke="#ddd" stroke-width="1" opacity="1"></line><line transform="translate(0,0)" x2="700" y2="0" stroke="#ddd" stroke-width="1" opacity="1"></line></g></g><path class="foreground" aria-hidden="true" d="" pointer-events="none" display="none"></path></g></g><g class="mark-group role-axis" role="graphics-symbol" aria-roledescription="axis" aria-label="X-axis titled 'Werbeaufwand' for a linear scale with values from 0.0 to 1.0"><g transform="translate(0.5,500.5)"><path class="background" aria-hidden="true" d="M0,0h0v0h0Z" pointer-events="none"></path><g><g class="mark-rule role-axis-tick" pointer-events="none"><line transform="translate(0,0)" x2="0" y2="5" stroke="#888" stroke-width="1" opacity="1"></line><line transform="translate(35,0)" x2="0" y2="5" stroke="#888" stroke-width="1" opacity="1"></line><line transform="translate(70,0)" x2="0" y2="5" stroke="#888" stroke-width="1" opacity="1"></line><line transform="translate(105,0)" x2="0" y2="5" stroke="#888" stroke-width="1" opacity="1"></line><line transform="translate(140,0)" x2="0" y2="5" stroke="#888" stroke-width="1" opacity="1"></line><line transform="translate(175,0)" x2="0" y2="5" stroke="#888" stroke-width="1" opacity="1"></line><line transform="translate(210,0)" x2="0" y2="5" stroke="#888" stroke-width="1" opacity="1"></line><line transform="translate(245,0)" x2="0" y2="5" stroke="#888" stroke-width="1" opacity="1"></line><line transform="translate(280,0)" x2="0" y2="5" stroke="#888" stroke-width="1" opacity="1"></line><line transform="translate(315,0)" x2="0" y2="5" stroke="#888" stroke-width="1" opacity="1"></line><line transform="translate(350,0)" x2="0" y2="5" stroke="#888" stroke-width="1" opacity="1"></line><line transform="translate(385,0)" x2="0" y2="5" stroke="#888" stroke-width="1" opacity="1"></line><line transform="translate(420,0)" x2="0" y2="5" stroke="#888" stroke-width="1" opacity="1"></line><line transform="translate(455,0)" x2="0" y2="5" stroke="#888" stroke-width="1" opacity="1"></line><line transform="translate(490,0)" x2="0" y2="5" stroke="#888" stroke-width="1" opacity="1"></line><line transform="translate(525,0)" x2="0" y2="5" stroke="#888" stroke-width="1" opacity="1"></line><line transform="translate(560,0)" x2="0" y2="5" stroke="#888" stroke-width="1" opacity="1"></line><line transform="translate(595,0)" x2="0" y2="5" stroke="#888" stroke-width="1" opacity="1"></line><line transform="translate(630,0)" x2="0" y2="5" stroke="#888" stroke-width="1" opacity="1"></line><line transform="translate(665,0)" x2="0" y2="5" stroke="#888" stroke-width="1" opacity="1"></line><line transform="translate(700,0)" x2="0" y2="5" stroke="#888" stroke-width="1" opacity="1"></line></g><g class="mark-text role-axis-label" pointer-events="none"><text text-anchor="start" transform="translate(0,23)" font-family="sans-serif" font-size="20px" fill="#000" opacity="1">0.00</text><text text-anchor="middle" transform="translate(35,23)" font-family="sans-serif" font-size="20px" fill="#000" opacity="0">0.05</text><text text-anchor="middle" transform="translate(70,23)" font-family="sans-serif" font-size="20px" fill="#000" opacity="1">0.10</text><text text-anchor="middle" transform="translate(105,23)" font-family="sans-serif" font-size="20px" fill="#000" opacity="0">0.15</text><text text-anchor="middle" transform="translate(140,23)" font-family="sans-serif" font-size="20px" fill="#000" opacity="1">0.20</text><text text-anchor="middle" transform="translate(175,23)" font-family="sans-serif" font-size="20px" fill="#000" opacity="0">0.25</text><text text-anchor="middle" transform="translate(210,23)" font-family="sans-serif" font-size="20px" fill="#000" opacity="1">0.30</text><text text-anchor="middle" transform="translate(244.99999999999997,23)" font-family="sans-serif" font-size="20px" fill="#000" opacity="0">0.35</text><text text-anchor="middle" transform="translate(280,23)" font-family="sans-serif" font-size="20px" fill="#000" opacity="1">0.40</text><text text-anchor="middle" transform="translate(315,23)" font-family="sans-serif" font-size="20px" fill="#000" opacity="0">0.45</text><text text-anchor="middle" transform="translate(350,23)" font-family="sans-serif" font-size="20px" fill="#000" opacity="1">0.50</text><text text-anchor="middle" transform="translate(385.00000000000006,23)" font-family="sans-serif" font-size="20px" fill="#000" opacity="0">0.55</text><text text-anchor="middle" transform="translate(420,23)" font-family="sans-serif" font-size="20px" fill="#000" opacity="1">0.60</text><text text-anchor="middle" transform="translate(455,23)" font-family="sans-serif" font-size="20px" fill="#000" opacity="0">0.65</text><text text-anchor="middle" transform="translate(489.99999999999994,23)" font-family="sans-serif" font-size="20px" fill="#000" opacity="1">0.70</text><text text-anchor="middle" transform="translate(525,23)" font-family="sans-serif" font-size="20px" fill="#000" opacity="0">0.75</text><text text-anchor="middle" transform="translate(560,23)" font-family="sans-serif" font-size="20px" fill="#000" opacity="1">0.80</text><text text-anchor="middle" transform="translate(595,23)" font-family="sans-serif" font-size="20px" fill="#000" opacity="0">0.85</text><text text-anchor="middle" transform="translate(630,23)" font-family="sans-serif" font-size="20px" fill="#000" opacity="1">0.90</text><text text-anchor="middle" transform="translate(665,23)" font-family="sans-serif" font-size="20px" fill="#000" opacity="0">0.95</text><text text-anchor="end" transform="translate(700,23)" font-family="sans-serif" font-size="20px" fill="#000" opacity="1">1.00</text></g><g class="mark-rule role-axis-domain" pointer-events="none"><line transform="translate(0,0)" x2="700" y2="0" stroke="#888" stroke-width="1" opacity="1"></line></g><g class="mark-text role-axis-title" pointer-events="none"><text text-anchor="middle" transform="translate(350,47)" font-family="sans-serif" font-size="20px" font-weight="bold" fill="#000" opacity="1">Werbeaufwand</text></g></g><path class="foreground" aria-hidden="true" d="" pointer-events="none" display="none"></path></g></g><g class="mark-group role-axis" role="graphics-symbol" aria-roledescription="axis" aria-label="Y-axis titled 'Absatz' for a linear scale with values from 0 to 11"><g transform="translate(0.5,0.5)"><path class="background" aria-hidden="true" d="M0,0h0v0h0Z" pointer-events="none"></path><g><g class="mark-rule role-axis-tick" pointer-events="none"><line transform="translate(0,500)" x2="-5" y2="0" stroke="#888" stroke-width="1" opacity="1"></line><line transform="translate(0,455)" x2="-5" y2="0" stroke="#888" stroke-width="1" opacity="1"></line><line transform="translate(0,409)" x2="-5" y2="0" stroke="#888" stroke-width="1" opacity="1"></line><line transform="translate(0,364)" x2="-5" y2="0" stroke="#888" stroke-width="1" opacity="1"></line><line transform="translate(0,318)" x2="-5" y2="0" stroke="#888" stroke-width="1" opacity="1"></line><line transform="translate(0,273)" x2="-5" y2="0" stroke="#888" stroke-width="1" opacity="1"></line><line transform="translate(0,227)" x2="-5" y2="0" stroke="#888" stroke-width="1" opacity="1"></line><line transform="translate(0,182)" x2="-5" y2="0" stroke="#888" stroke-width="1" opacity="1"></line><line transform="translate(0,136)" x2="-5" y2="0" stroke="#888" stroke-width="1" opacity="1"></line><line transform="translate(0,91)" x2="-5" y2="0" stroke="#888" stroke-width="1" opacity="1"></line><line transform="translate(0,45)" x2="-5" y2="0" stroke="#888" stroke-width="1" opacity="1"></line><line transform="translate(0,0)" x2="-5" y2="0" stroke="#888" stroke-width="1" opacity="1"></line></g><g class="mark-text role-axis-label" pointer-events="none"><text text-anchor="end" transform="translate(-7,506)" font-family="sans-serif" font-size="20px" fill="#000" opacity="1">0</text><text text-anchor="end" transform="translate(-7,460.5454545454545)" font-family="sans-serif" font-size="20px" fill="#000" opacity="1">1</text><text text-anchor="end" transform="translate(-7,415.09090909090907)" font-family="sans-serif" font-size="20px" fill="#000" opacity="1">2</text><text text-anchor="end" transform="translate(-7,369.6363636363636)" font-family="sans-serif" font-size="20px" fill="#000" opacity="1">3</text><text text-anchor="end" transform="translate(-7,324.1818181818182)" font-family="sans-serif" font-size="20px" fill="#000" opacity="1">4</text><text text-anchor="end" transform="translate(-7,278.7272727272727)" font-family="sans-serif" font-size="20px" fill="#000" opacity="1">5</text><text text-anchor="end" transform="translate(-7,233.27272727272728)" font-family="sans-serif" font-size="20px" fill="#000" opacity="1">6</text><text text-anchor="end" transform="translate(-7,187.8181818181818)" font-family="sans-serif" font-size="20px" fill="#000" opacity="1">7</text><text text-anchor="end" transform="translate(-7,142.36363636363635)" font-family="sans-serif" font-size="20px" fill="#000" opacity="1">8</text><text text-anchor="end" transform="translate(-7,96.90909090909088)" font-family="sans-serif" font-size="20px" fill="#000" opacity="1">9</text><text text-anchor="end" transform="translate(-7,51.45454545454547)" font-family="sans-serif" font-size="20px" fill="#000" opacity="1">10</text><text text-anchor="end" transform="translate(-7,6)" font-family="sans-serif" font-size="20px" fill="#000" opacity="1">11</text></g><g class="mark-rule role-axis-domain" pointer-events="none"><line transform="translate(0,500)" x2="0" y2="-500" stroke="#888" stroke-width="1" opacity="1"></line></g><g class="mark-text role-axis-title" pointer-events="none"><text text-anchor="middle" transform="translate(-33.24609375,250) rotate(-90) translate(0,-4)" font-family="sans-serif" font-size="20px" font-weight="bold" fill="#000" opacity="1">Absatz</text></g></g><path class="foreground" aria-hidden="true" d="" pointer-events="none" display="none"></path></g></g><g class="mark-symbol role-mark marks" role="graphics-symbol" aria-roledescription="symbol mark container"><path transform="translate(68.37608599485672,404.8038446667935)" d="M5,0A5,5,0,1,1,-5,0A5,5,0,1,1,5,0" stroke="#0070c0" stroke-width="2" opacity="0.7"></path><path transform="translate(31.251156332756157,365.49184672968664)" d="M5,0A5,5,0,1,1,-5,0A5,5,0,1,1,5,0" stroke="#0070c0" stroke-width="2" opacity="0.7"></path><path transform="translate(67.07371535861057,358.6135895767344)" d="M5,0A5,5,0,1,1,-5,0A5,5,0,1,1,5,0" stroke="#0070c0" stroke-width="2" opacity="0.7"></path><path transform="translate(80.16245207986857,353.83702299870026)" d="M5,0A5,5,0,1,1,-5,0A5,5,0,1,1,5,0" stroke="#0070c0" stroke-width="2" opacity="0.7"></path><path transform="translate(116.39421573813927,328.73767221215417)" d="M5,0A5,5,0,1,1,-5,0A5,5,0,1,1,5,0" stroke="#0070c0" stroke-width="2" opacity="0.7"></path><path transform="translate(203.81212142866318,312.16707619550357)" d="M5,0A5,5,0,1,1,-5,0A5,5,0,1,1,5,0" stroke="#0070c0" stroke-width="2" opacity="0.7"></path><path transform="translate(33.94997364321719,306.1723222541397)" d="M5,0A5,5,0,1,1,-5,0A5,5,0,1,1,5,0" stroke="#0070c0" stroke-width="2" opacity="0.7"></path><path transform="translate(164.28963666416607,302.2786367085436)" d="M5,0A5,5,0,1,1,-5,0A5,5,0,1,1,5,0" stroke="#0070c0" stroke-width="2" opacity="0.7"></path><path transform="translate(156.82330050246742,299.9508841028609)" d="M5,0A5,5,0,1,1,-5,0A5,5,0,1,1,5,0" stroke="#0070c0" stroke-width="2" opacity="0.7"></path><path transform="translate(463.27390180042323,290.1519716003249)" d="M5,0A5,5,0,1,1,-5,0A5,5,0,1,1,5,0" stroke="#0070c0" stroke-width="2" opacity="0.7"></path><path transform="translate(328.521053914715,258.4878697751327)" d="M5,0A5,5,0,1,1,-5,0A5,5,0,1,1,5,0" stroke="#0070c0" stroke-width="2" opacity="0.7"></path><path transform="translate(111.36741202993743,249.12114120356654)" d="M5,0A5,5,0,1,1,-5,0A5,5,0,1,1,5,0" stroke="#0070c0" stroke-width="2" opacity="0.7"></path><path transform="translate(468.5936476783499,233.62845881693528)" d="M5,0A5,5,0,1,1,-5,0A5,5,0,1,1,5,0" stroke="#0070c0" stroke-width="2" opacity="0.7"></path><path transform="translate(208.85924917751763,227.81114143437864)" d="M5,0A5,5,0,1,1,-5,0A5,5,0,1,1,5,0" stroke="#0070c0" stroke-width="2" opacity="0.7"></path><path transform="translate(271.2029758622257,215.5937307410591)" d="M5,0A5,5,0,1,1,-5,0A5,5,0,1,1,5,0" stroke="#0070c0" stroke-width="2" opacity="0.7"></path><path transform="translate(510.25839304425773,212.981025576011)" d="M5,0A5,5,0,1,1,-5,0A5,5,0,1,1,5,0" stroke="#0070c0" stroke-width="2" opacity="0.7"></path><path transform="translate(476.6621606835767,208.84507803324647)" d="M5,0A5,5,0,1,1,-5,0A5,5,0,1,1,5,0" stroke="#0070c0" stroke-width="2" opacity="0.7"></path><path transform="translate(361.42617389482893,208.03069014098364)" d="M5,0A5,5,0,1,1,-5,0A5,5,0,1,1,5,0" stroke="#0070c0" stroke-width="2" opacity="0.7"></path><path transform="translate(427.09499275792257,199.7210254034253)" d="M5,0A5,5,0,1,1,-5,0A5,5,0,1,1,5,0" stroke="#0070c0" stroke-width="2" opacity="0.7"></path><path transform="translate(325.72945076415533,190.05922485289466)" d="M5,0A5,5,0,1,1,-5,0A5,5,0,1,1,5,0" stroke="#0070c0" stroke-width="2" opacity="0.7"></path><path transform="translate(326.2084639622553,187.59817841521286)" d="M5,0A5,5,0,1,1,-5,0A5,5,0,1,1,5,0" stroke="#0070c0" stroke-width="2" opacity="0.7"></path><path transform="translate(467.90202658065215,173.278912123858)" d="M5,0A5,5,0,1,1,-5,0A5,5,0,1,1,5,0" stroke="#0070c0" stroke-width="2" opacity="0.7"></path><path transform="translate(523.3123909652923,163.11664473295656)" d="M5,0A5,5,0,1,1,-5,0A5,5,0,1,1,5,0" stroke="#0070c0" stroke-width="2" opacity="0.7"></path><path transform="translate(277.6235383045505,161.8398696899485)" d="M5,0A5,5,0,1,1,-5,0A5,5,0,1,1,5,0" stroke="#0070c0" stroke-width="2" opacity="0.7"></path><path transform="translate(423.92090105433516,157.3250725301611)" d="M5,0A5,5,0,1,1,-5,0A5,5,0,1,1,5,0" stroke="#0070c0" stroke-width="2" opacity="0.7"></path><path transform="translate(643.3678811822235,151.21593115625183)" d="M5,0A5,5,0,1,1,-5,0A5,5,0,1,1,5,0" stroke="#0070c0" stroke-width="2" opacity="0.7"></path><path transform="translate(599.6980525687235,136.58556488069001)" d="M5,0A5,5,0,1,1,-5,0A5,5,0,1,1,5,0" stroke="#0070c0" stroke-width="2" opacity="0.7"></path><path transform="translate(391.03298182557455,136.03637661226531)" d="M5,0A5,5,0,1,1,-5,0A5,5,0,1,1,5,0" stroke="#0070c0" stroke-width="2" opacity="0.7"></path><path transform="translate(547.2181150290802,134.1428999700474)" d="M5,0A5,5,0,1,1,-5,0A5,5,0,1,1,5,0" stroke="#0070c0" stroke-width="2" opacity="0.7"></path><path transform="translate(542.4306207600827,121.20242197818848)" d="M5,0A5,5,0,1,1,-5,0A5,5,0,1,1,5,0" stroke="#0070c0" stroke-width="2" opacity="0.7"></path><path transform="translate(403.7851388805129,119.94274989093795)" d="M5,0A5,5,0,1,1,-5,0A5,5,0,1,1,5,0" stroke="#0070c0" stroke-width="2" opacity="0.7"></path><path transform="translate(672.5316134541089,110.71933875777518)" d="M5,0A5,5,0,1,1,-5,0A5,5,0,1,1,5,0" stroke="#0070c0" stroke-width="2" opacity="0.7"></path><path transform="translate(653.2111504132614,82.6654406544105)" d="M5,0A5,5,0,1,1,-5,0A5,5,0,1,1,5,0" stroke="#0070c0" stroke-width="2" opacity="0.7"></path><path transform="translate(674.6734867636817,79.21655144651096)" d="M5,0A5,5,0,1,1,-5,0A5,5,0,1,1,5,0" stroke="#0070c0" stroke-width="2" opacity="0.7"></path><path transform="translate(670.0136034702834,74.32416778280121)" d="M5,0A5,5,0,1,1,-5,0A5,5,0,1,1,5,0" stroke="#0070c0" stroke-width="2" opacity="0.7"></path><path transform="translate(679.0064751205762,7.237075322416741)" d="M5,0A5,5,0,1,1,-5,0A5,5,0,1,1,5,0" stroke="#0070c0" stroke-width="2" opacity="0.7"></path></g></g><path class="foreground" aria-hidden="true" d="" display="none"></path></g></g></g></svg>